<?xml version="1.0" standalone="no"?>
<!DOCTYPE svg PUBLIC "-//W3C//DTD SVG 20010904//EN"
 "http://www.w3.org/TR/2001/REC-SVG-20010904/DTD/svg10.dtd">
<svg version="1.0" xmlns="http://www.w3.org/2000/svg"
 width="500.000000pt" height="500.000000pt" viewBox="0 0 500.000000 500.000000"
 preserveAspectRatio="xMidYMid meet">

<g transform="translate(0.000000,500.000000) scale(0.100000,-0.100000)"
fill="#000000" stroke="none">
<path d="M0 2500 l0 -2500 2500 0 2500 0 0 2500 0 2500 -2500 0 -2500 0 0
-2500z m3235 178 c402 -402 710 -716 685 -696 -25 19 -355 281 -733 582 l-688
547 -92 -74 c-86 -69 -180 -144 -832 -662 -137 -109 -315 -250 -395 -313
l-145 -114 252 253 253 254 2 220 3 220 138 1 137 2 0 -74 c0 -41 3 -74 8 -74
4 0 156 149 337 330 181 182 332 330 335 330 3 0 334 -329 735 -732z m-745
-128 l0 -121 -117 3 -118 3 -3 118 -3 117 121 0 120 0 0 -120z m260 0 l0 -120
-120 0 -120 0 0 120 0 120 120 0 120 0 0 -120z m-260 -260 l0 -121 -117 3
-118 3 -3 118 -3 117 121 0 120 0 0 -120z m258 3 l-3 -118 -115 0 -115 0 -3
118 -3 117 121 0 121 0 -3 -117z m-1135 -485 c15 -11 27 -26 27 -34 0 -19 -44
-18 -60 1 -17 20 -69 19 -92 -2 -11 -10 -18 -30 -18 -55 0 -65 56 -99 104 -63
21 16 66 21 66 8 -1 -30 -57 -63 -108 -63 -37 0 -50 6 -78 34 -27 27 -34 42
-34 75 0 59 19 91 65 112 45 21 85 17 128 -13z m709 5 c26 -23 23 -43 -7 -43
-14 0 -25 4 -25 9 0 13 -27 21 -46 14 -8 -3 -14 -15 -12 -26 2 -16 15 -25 48
-34 72 -21 90 -64 45 -108 -44 -45 -145 -24 -145 30 0 20 46 20 54 -1 9 -24
61 -15 61 11 0 14 -11 24 -40 33 -69 23 -90 56 -64 103 21 41 92 47 131 12z
m-1282 2 c0 -11 -12 -15 -45 -15 -43 0 -45 -1 -45 -30 0 -28 3 -30 35 -30 28
0 35 -4 35 -20 0 -16 -7 -20 -35 -20 l-35 0 0 -50 c0 -47 -2 -50 -25 -50 l-25
0 0 115 0 115 70 0 c56 0 70 -3 70 -15z m120 -100 l0 -115 -25 0 -25 0 0 115
0 115 25 0 25 0 0 -115z m130 21 l0 -95 37 -3 c27 -2 39 -8 41 -20 3 -16 -5
-18 -62 -18 l-66 0 0 115 0 115 25 0 c25 0 25 0 25 -94z m577 72 c30 -28 29
-63 -2 -94 l-25 -25 26 -45 26 -44 -29 0 c-23 0 -33 8 -53 45 -14 25 -28 45
-32 45 -5 0 -8 -20 -8 -45 0 -41 -2 -45 -25 -45 l-25 0 0 115 0 115 62 0 c50
0 66 -4 85 -22z m243 7 c0 -11 -12 -15 -45 -15 -43 0 -45 -1 -45 -30 0 -27 3
-30 34 -30 25 0 35 -5 39 -20 4 -17 0 -20 -34 -20 -37 0 -39 -2 -39 -29 0 -28
3 -30 43 -33 29 -2 42 -8 42 -18 0 -12 -15 -16 -67 -18 l-68 -3 0 116 0 115
70 0 c56 0 70 -3 70 -15z m480 1 c0 -9 -12 -16 -32 -18 l-33 -3 -3 -97 c-2
-89 -4 -98 -22 -98 -18 0 -20 9 -22 98 l-3 97 -32 3 c-21 2 -33 9 -33 18 0 11
18 14 90 14 72 0 90 -3 90 -14z m338 -2 c33 -23 31 -89 -3 -107 l-25 -13 30
-47 30 -47 -26 0 c-19 0 -31 11 -52 45 -35 58 -52 58 -52 0 0 -38 -3 -45 -20
-45 -19 0 -20 7 -20 115 l0 115 58 0 c36 0 66 -6 80 -16z m242 1 c0 -11 -12
-15 -46 -15 -45 0 -45 0 -42 -32 3 -30 6 -33 41 -36 54 -5 51 -32 -4 -32 -39
0 -40 -1 -37 -32 3 -32 5 -33 46 -33 33 0 42 -4 42 -17 0 -15 -10 -18 -65 -18
l-65 0 0 115 0 115 65 0 c51 0 65 -3 65 -15z m242 -95 c20 -58 37 -108 37
-112 1 -5 -10 -8 -23 -8 -18 0 -25 6 -28 23 -3 19 -10 22 -51 25 -43 3 -48 1
-57 -22 -6 -16 -17 -26 -30 -26 -11 0 -20 2 -20 4 0 4 53 156 71 203 7 19 15
24 36 21 25 -3 31 -12 65 -108z m158 10 l0 -100 35 0 c24 0 35 -5 35 -15 0
-12 -13 -15 -60 -15 l-60 0 0 115 0 115 25 0 25 0 0 -100z m290 85 c0 -10 -10
-15 -30 -15 l-30 0 0 -100 c0 -93 -1 -100 -20 -100 -19 0 -20 7 -20 100 l0
100 -30 0 c-20 0 -30 5 -30 15 0 12 16 15 80 15 64 0 80 -3 80 -15z m132 -35
c11 -27 24 -50 28 -50 4 0 17 23 28 50 17 41 25 50 46 50 l25 0 -39 -75 c-28
-51 -40 -87 -40 -115 0 -33 -3 -40 -20 -40 -17 0 -20 7 -20 39 0 27 -13 63
-41 115 l-41 76 27 0 c22 0 29 -8 47 -50z"/>
<path d="M1770 1764 c0 -34 1 -35 32 -32 38 4 51 34 22 55 -34 25 -54 17 -54
-23z"/>
<path d="M2830 1766 c0 -34 2 -36 35 -36 63 0 59 62 -4 68 -30 3 -31 2 -31
-32z"/>
<path d="M3326 1730 c-21 -52 -22 -50 18 -50 l35 0 -16 45 c-8 25 -16 45 -18
45 -1 0 -10 -18 -19 -40z"/>
</g>
</svg>
